<svg width="45" height="45" viewBox="0 0 45 45" fill="none" xmlns="http://www.w3.org/2000/svg">
<path d="M45 22.5C45 10.0736 34.9264 0 22.5 0C10.0736 0 0 10.0736 0 22.5C0 34.9264 10.0736 45 22.5 45C34.9264 45 45 34.9264 45 22.5Z" fill="#6F6BF3"/>
<path d="M13.4233 15.0842C12.485 15.0842 11.5852 15.4569 10.9218 16.1204C10.2583 16.7838 9.88561 17.6837 9.88561 18.6219V27.341C9.87532 27.812 9.95918 28.2803 10.1323 28.7184C10.3054 29.1565 10.5643 29.5557 10.8937 29.8924C11.2232 30.2291 11.6165 30.4967 12.0508 30.6793C12.485 30.862 12.9514 30.9561 13.4224 30.9561C13.8935 30.9561 14.3599 30.862 14.7941 30.6793C15.2283 30.4967 15.6217 30.2291 15.9512 29.8924C16.2806 29.5557 16.5395 29.1565 16.7126 28.7184C16.8857 28.2803 16.9696 27.812 16.9593 27.341V18.6219C16.9593 17.6837 17.332 16.7838 17.9955 16.1204C18.6589 15.4569 19.5587 15.0842 20.497 15.0842H13.4233Z" fill="white"/>
<path d="M22.5934 15.0842C21.6552 15.0842 20.7553 15.4569 20.0919 16.1204C19.4284 16.7838 19.0557 17.6837 19.0557 18.6219V27.341C19.0557 28.2793 19.4284 29.1791 20.0919 29.8426C20.7553 30.506 21.6552 30.8787 22.5934 30.8787C23.5317 30.8787 24.4315 30.506 25.095 29.8426C25.7584 29.1791 26.1311 28.2793 26.1311 27.341V18.6219C26.1306 17.6885 26.4993 16.7927 27.1566 16.13C27.814 15.4673 28.7067 15.0914 29.6401 15.0842H22.5934Z" fill="white"/>
<path d="M31.4491 15.0842H31.4221C30.4887 15.0914 29.596 15.4673 28.9386 16.13C28.2813 16.7927 27.9127 17.6885 27.9131 18.6219V27.341C27.9131 28.279 28.2856 29.1786 28.9487 29.842C29.6118 30.5054 30.5112 30.8783 31.4491 30.8787C32.3874 30.8787 33.2872 30.506 33.9507 29.8426C34.6141 29.1791 34.9868 28.2793 34.9868 27.341V18.6219C34.9868 17.6837 34.6141 16.7838 33.9507 16.1204C33.2872 15.4569 32.3874 15.0842 31.4491 15.0842Z" fill="white"/>
</svg>
