<svg width="78" height="40" viewBox="0 0 78 40" fill="none" xmlns="http://www.w3.org/2000/svg">
<path d="M0 2.14023H9.96221L20.4841 27.3108H20.9318L31.4537 2.14023H41.4159V39.6034H33.5805V15.2194H33.2633L23.3757 39.4205H18.0402L8.15259 15.128H7.83545V39.6034H0V2.14023Z" fill="black"/>
<path d="M47.9221 39.6034V11.506H55.8695V39.6034H47.9221ZM51.9145 7.8841C50.733 7.8841 49.7193 7.49996 48.8736 6.73167C48.0403 5.95119 47.6236 5.01826 47.6236 3.9329C47.6236 2.85974 48.0403 1.93901 48.8736 1.17073C49.7193 0.390242 50.733 0 51.9145 0C53.096 0 54.1034 0.390242 54.9367 1.17073C55.7825 1.93901 56.2053 2.85974 56.2053 3.9329C56.2053 5.01826 55.7825 5.95119 54.9367 6.73167C54.1034 7.49996 53.096 7.8841 51.9145 7.8841Z" fill="black"/>
<path d="M77.4776 11.506V17.3597H60.221V11.506H77.4776ZM64.1387 4.77436H72.0861V30.9693C72.0861 31.6888 72.198 32.2498 72.4219 32.6523C72.6458 33.0425 72.9567 33.3169 73.3547 33.4754C73.7651 33.634 74.2377 33.7132 74.7725 33.7132C75.1457 33.7132 75.5188 33.6827 75.8919 33.6218C76.265 33.5486 76.5511 33.4937 76.7501 33.4571L78 39.2559C77.602 39.3778 77.0423 39.5181 76.321 39.6766C75.5996 39.8473 74.7228 39.951 73.6905 39.9876C71.7752 40.0607 70.0961 39.8107 68.6534 39.2376C67.2232 38.6644 66.11 37.7742 65.314 36.5669C64.5181 35.3596 64.1263 33.8352 64.1387 31.9937V4.77436Z" fill="black"/>
</svg>
