<svg width="28" height="32" viewBox="0 0 28 32" fill="none" xmlns="http://www.w3.org/2000/svg">
<path d="M23.85 16.2349C23.6057 16.0073 23.284 15.8807 22.95 15.8807C22.616 15.8807 22.2943 16.0073 22.05 16.2349C21.9333 16.3477 21.8404 16.4829 21.777 16.6323C21.7136 16.7817 21.6809 16.9424 21.6809 17.1047C21.6809 17.267 21.7136 17.4276 21.777 17.577C21.8404 17.7265 21.9333 17.8616 22.05 17.9744C23.1214 18.9878 23.9747 20.2091 24.5576 21.5637C25.1405 22.9182 25.4408 24.3774 25.44 25.8519C25.44 27.3515 20.98 29.5408 13.99 29.5408C7.00001 29.5408 2.53999 27.3515 2.53999 25.8419C2.54096 24.3778 2.83927 22.9291 3.41682 21.5836C3.99438 20.2381 4.83916 19.0239 5.89999 18.0144C6.01673 17.9016 6.10957 17.7664 6.17297 17.617C6.23638 17.4676 6.26904 17.307 6.26904 17.1447C6.26904 16.9824 6.23638 16.8217 6.17297 16.6723C6.10957 16.5229 6.01673 16.3877 5.89999 16.2749C5.65676 16.045 5.33473 15.9169 5 15.9169C4.66527 15.9169 4.34324 16.045 4.10001 16.2749C2.80507 17.5117 1.77416 18.9979 1.0695 20.6439C0.364844 22.2899 0.00102625 24.0615 0 25.8519C0 29.8507 7.21 32 14 32C20.79 32 28 29.8407 28 25.8519C27.9974 24.0513 27.6281 22.27 26.9146 20.6167C26.2011 18.9633 25.1584 17.4725 23.85 16.2349ZM14 17.2346C15.7053 17.2346 17.3723 16.729 18.79 15.7816C20.2078 14.8343 21.3127 13.4879 21.9648 11.9127C22.6169 10.3375 22.7871 8.60435 22.4536 6.93248C22.1202 5.26062 21.2982 3.72518 20.0917 2.52042C18.8852 1.31567 17.3483 0.495734 15.6755 0.164363C14.0028 -0.167008 12.2693 0.00508096 10.6943 0.658838C9.11941 1.31259 7.77384 2.41865 6.82787 3.83707C5.88189 5.2555 5.37803 6.92254 5.38 8.62731C5.38 10.9128 6.28818 13.1046 7.90474 14.7207C9.5213 16.3367 11.7138 17.2446 14 17.2446V17.2346ZM14 2.46923C15.2188 2.46725 16.4107 2.82673 17.425 3.50219C18.4393 4.17764 19.2304 5.13871 19.6982 6.26378C20.166 7.38884 20.2894 8.62735 20.0529 9.82256C19.8163 11.0178 19.2304 12.116 18.3693 12.9782C17.5082 13.8404 16.4106 14.4279 15.2155 14.6663C14.0203 14.9047 12.7812 14.7834 11.655 14.3176C10.5288 13.8518 9.56615 13.0625 8.88884 12.0496C8.21153 11.0367 7.85001 9.84569 7.85001 8.62731C7.85001 7.81993 8.00908 7.02047 8.31815 6.27455C8.62721 5.52863 9.08021 4.85086 9.65129 4.27996C10.2224 3.70906 10.9003 3.2562 11.6465 2.94723C12.3927 2.63826 13.1924 2.47924 14 2.47924V2.46923Z" fill="#6863F3"/>
</svg>
