<svg width="44" height="44" viewBox="0 0 24 20" fill="none" xmlns="http://www.w3.org/2000/svg">
<path d="M20.0833 16.5312C20.0833 16.8281 19.9167 16.9978 19.625 16.9978C19.3333 16.9978 19.1667 16.7857 19.1667 16.5312C19.1667 16.2344 19.3333 16.0223 19.625 16.0223C19.9167 16.0223 20.0833 16.2344 20.0833 16.5312ZM7.16667 16.0223C7.41667 16.0223 7.58333 16.2344 7.625 16.5312C7.625 16.8281 7.41667 16.9978 7.16667 16.9978C6.875 16.9978 6.66667 16.7857 6.66667 16.5312C6.66667 16.2344 6.875 16.0223 7.16667 16.0223ZM12.0417 16.0223C12.25 16.0223 12.4167 16.1496 12.4583 16.3616H11.6667C11.6667 16.1496 11.8333 16.0223 12.0417 16.0223ZM16.5417 16.0223C16.8333 16.0223 17 16.2344 17 16.5312C17 16.8281 16.8333 16.9978 16.5417 16.9978C16.25 16.9978 16.0833 16.7857 16.0833 16.5312C16.0833 16.2344 16.25 16.0223 16.5417 16.0223ZM20.9583 17.125V17.1674C20.9583 17.2098 20.9583 17.2098 20.9583 17.2098C20.9583 17.2522 20.9583 17.2522 20.9167 17.2522C20.9167 17.2522 20.9167 17.2946 20.875 17.2946C20.875 17.2946 20.875 17.2946 20.8333 17.2946C20.8333 17.2946 20.8333 17.2946 20.7917 17.2946C20.7917 17.2946 20.7917 17.2522 20.75 17.2522C20.75 17.2522 20.75 17.2522 20.75 17.2098C20.7083 17.2098 20.7083 17.2098 20.7083 17.1674C20.7083 17.1674 20.7083 17.125 20.75 17.125V17.0826C20.7917 17.0826 20.7917 17.0826 20.7917 17.0826C20.8333 17.0402 20.8333 17.0402 20.8333 17.0402C20.875 17.0402 20.875 17.0402 20.875 17.0826C20.9167 17.0826 20.9167 17.0826 20.9167 17.0826C20.9583 17.0826 20.9583 17.125 20.9583 17.125ZM20.875 17.2098V17.1674C20.9167 17.1674 20.9167 17.1674 20.9167 17.125C20.9167 17.125 20.9167 17.125 20.875 17.125C20.875 17.125 20.875 17.0826 20.8333 17.0826H20.7917V17.2522H20.8333V17.1674L20.875 17.2522H20.9167L20.875 17.2098ZM24 2.53571V17.4643C24 18.6094 23.0833 19.5 22 19.5H2C0.875 19.5 0 18.6094 0 17.4643V2.53571C0 1.43304 0.875 0.5 2 0.5H22C23.0833 0.5 24 1.43304 24 2.53571ZM2.66667 8.47321C2.66667 11.7388 5.25 14.3683 8.41667 14.3683C9.54167 14.3683 10.6667 13.9866 11.625 13.3504C8.58333 10.8482 8.58333 6.09821 11.625 3.59598C10.6667 2.95982 9.54167 2.62054 8.41667 2.62054C5.25 2.62054 2.66667 5.25 2.66667 8.47321ZM12 13.096C14.9167 10.7634 14.9167 6.22545 12 3.85045C9.04167 6.22545 9.04167 10.7634 12 13.096ZM6.04167 16.3192C6.04167 15.9375 5.83333 15.7254 5.45833 15.683C5.25 15.683 5.04167 15.7679 4.91667 15.9799C4.79167 15.8103 4.625 15.683 4.41667 15.683C4.25 15.683 4.08333 15.7679 3.95833 15.9375V15.7254H3.625V17.2946H3.95833C3.95833 16.4888 3.83333 16.0223 4.33333 16.0223C4.75 16.0223 4.66667 16.4464 4.66667 17.2946H5C5 16.5312 4.91667 16.0223 5.375 16.0223C5.79167 16.0223 5.70833 16.4464 5.70833 17.2946H6.04167V16.3192ZM7.91667 15.7254H7.58333V15.9375C7.5 15.8103 7.33333 15.683 7.125 15.683C6.66667 15.683 6.33333 16.0647 6.33333 16.5312C6.33333 16.9978 6.66667 17.3371 7.125 17.3371C7.33333 17.3371 7.5 17.2522 7.58333 17.125V17.2946H7.91667V15.7254ZM9.625 16.8281C9.625 16.192 8.66667 16.4888 8.66667 16.192C8.66667 15.9375 9.16667 15.9799 9.41667 16.1496L9.58333 15.8527C9.16667 15.5982 8.29167 15.5982 8.29167 16.192C8.29167 16.8281 9.25 16.5737 9.25 16.8281C9.25 17.125 8.70833 17.0826 8.41667 16.8705L8.25 17.1674C8.70833 17.4643 9.625 17.4219 9.625 16.8281ZM11.0833 17.2098L11 16.9554C10.8333 17.0402 10.5 17.125 10.5 16.7433V16.0647H11.0417V15.7254H10.5V15.2589H10.125V15.7254H9.83333V16.0647H10.125V16.7433C10.125 17.5067 10.875 17.3795 11.0833 17.2098ZM11.625 16.6585H12.7917C12.7917 15.9799 12.4583 15.683 12.0417 15.683C11.625 15.683 11.2917 16.0223 11.2917 16.5312C11.2917 17.3795 12.25 17.5491 12.7083 17.125L12.5417 16.8705C12.2083 17.125 11.75 17.125 11.625 16.6585ZM14.0833 15.7254C13.9167 15.6406 13.625 15.683 13.4583 15.9375V15.7254H13.125V17.2946H13.4583V16.404C13.4583 15.9375 13.875 15.9799 14 16.0647L14.0833 15.7254ZM14.5417 16.5312C14.5417 16.0223 15.0417 15.8951 15.4167 16.1496L15.5833 15.8951C15.0833 15.5134 14.2083 15.7254 14.2083 16.5312C14.2083 17.3795 15.125 17.5491 15.5833 17.1674L15.4167 16.8705C15.0417 17.1674 14.5417 16.9978 14.5417 16.5312ZM17.3333 15.7254H17V15.9375C16.625 15.471 15.75 15.7254 15.75 16.5312C15.75 17.3371 16.6667 17.5491 17 17.125V17.2946H17.3333V15.7254ZM18.7083 15.7254C18.625 15.683 18.25 15.6406 18.0833 15.9375V15.7254H17.75V17.2946H18.0833V16.404C18.0833 15.9375 18.4583 15.9799 18.625 16.0647L18.7083 15.7254ZM20.4167 15.1317H20.0833V15.9375C19.75 15.471 18.8333 15.7254 18.8333 16.5312C18.8333 17.3371 19.75 17.5491 20.0833 17.125V17.2946H20.4167V15.1317ZM20.7083 11.9085V12.1205H20.75V11.9085H20.8333H20.625H20.7083ZM21 17.1674V17.125C20.9583 17.0826 20.9583 17.0826 20.9583 17.0826C20.9583 17.0402 20.9167 17.0402 20.9167 17.0402C20.875 17.0402 20.875 16.9978 20.8333 16.9978L20.7917 17.0402C20.75 17.0402 20.75 17.0402 20.75 17.0826C20.7083 17.0826 20.7083 17.0826 20.7083 17.125V17.1674C20.7083 17.2098 20.7083 17.2098 20.7083 17.2522C20.7083 17.2522 20.7083 17.2522 20.75 17.2946C20.75 17.2946 20.75 17.2946 20.7917 17.3371H20.8333C20.875 17.3371 20.875 17.3371 20.9167 17.3371C20.9167 17.2946 20.9583 17.2946 20.9583 17.2946C20.9583 17.2522 20.9583 17.2522 21 17.2522C21 17.2098 21 17.2098 21 17.1674ZM21.125 11.9085H21.0833L21 12.0357L20.9583 11.9085H20.875V12.1205H20.9167V11.9509L21 12.0781H21.0417L21.0833 11.9509V12.1205H21.125V11.9085ZM21.3333 8.47321C21.3333 5.25 18.7083 2.62054 15.5417 2.62054C14.4167 2.62054 13.2917 2.95982 12.375 3.59598C15.375 6.09821 15.4167 10.8482 12.375 13.3504C13.2917 13.9866 14.4167 14.3259 15.5417 14.3259C18.7083 14.3683 21.3333 11.7388 21.3333 8.47321Z" fill="#6F6BF3"/>
</svg>
