<svg width="60" height="40" viewBox="0 0 60 40" fill="none" xmlns="http://www.w3.org/2000/svg">
<rect x="-3.05176e-05" width="60" height="40" rx="4" fill="#223970"/>
<path fill-rule="evenodd" clip-rule="evenodd" d="M4.99997 36H55V4H4.99997V36Z" fill="#223970"/>
<path fill-rule="evenodd" clip-rule="evenodd" d="M30.0409 30.2227C32.3631 32.3426 35.3345 33.5913 38.458 33.76C41.5815 33.9286 44.6675 33.007 47.1997 31.1493C49.7318 29.2917 51.5563 26.6106 52.3681 23.5549C53.1798 20.4991 52.9294 17.2541 51.6588 14.3627C50.3882 11.4714 48.1745 9.10918 45.3882 7.67141C42.6018 6.23364 39.4118 5.80754 36.352 6.46441C33.2922 7.12127 30.5482 8.82125 28.5793 11.2799C26.6103 13.7385 25.5359 16.8066 25.5357 19.9707C25.5331 21.9037 25.9329 23.8157 26.7091 25.582C27.4853 27.3484 28.6205 28.9296 30.0409 30.2227Z" fill="#E8B03F"/>
<path fill-rule="evenodd" clip-rule="evenodd" d="M51.0588 27.6739C51.0589 27.6146 51.071 27.556 51.0943 27.5016C51.1176 27.4472 51.1516 27.3982 51.1943 27.3576C51.2371 27.317 51.2875 27.2857 51.3427 27.2656C51.3978 27.2454 51.4564 27.2369 51.5149 27.2406C51.5715 27.2397 51.6276 27.2503 51.6801 27.2717C51.7325 27.2931 51.7802 27.325 51.8202 27.3654C51.8603 27.4058 51.8919 27.4539 51.9133 27.5069C51.9347 27.5599 51.9453 27.6167 51.9446 27.6739C51.9467 27.7923 51.903 27.9069 51.8227 27.9932C51.7424 28.0794 51.6319 28.1304 51.5149 28.1352C51.3951 28.1359 51.2799 28.0887 51.1944 28.0037C51.109 27.9188 51.0602 27.8031 51.0588 27.6819V27.6739ZM51.5149 28.0272C51.6025 28.0199 51.6843 27.9795 51.7438 27.914C51.8034 27.8486 51.8365 27.7629 51.8365 27.6739C51.8355 27.5879 51.8013 27.5058 51.7412 27.445C51.6811 27.3842 51.5999 27.3496 51.5149 27.3486C51.4708 27.3464 51.4268 27.3532 51.3853 27.3684C51.3439 27.3837 51.3059 27.4071 51.2735 27.4374C51.2411 27.4677 51.215 27.5042 51.1967 27.5448C51.1784 27.5854 51.1683 27.6293 51.1669 27.6739C51.1683 27.767 51.2053 27.8558 51.2703 27.9218C51.3352 27.9877 51.4229 28.0255 51.5149 28.0272ZM51.4345 27.8939H51.3541V27.4872H51.5149C51.5529 27.4833 51.591 27.4927 51.623 27.5139C51.6493 27.5419 51.6757 27.5686 51.6757 27.5952C51.6757 27.6499 51.6493 27.7046 51.5966 27.7046L51.6757 27.8939H51.5689L51.5149 27.7312H51.4345V27.8939ZM51.4345 27.6499H51.5426C51.5689 27.6499 51.5689 27.6219 51.5689 27.5952C51.5689 27.5917 51.5683 27.5883 51.5669 27.585C51.5656 27.5818 51.5637 27.5788 51.5612 27.5764C51.5588 27.5739 51.5559 27.5719 51.5527 27.5706C51.5495 27.5693 51.546 27.5686 51.5426 27.5686H51.4345V27.6499Z" fill="#E8B03F"/>
<path fill-rule="evenodd" clip-rule="evenodd" d="M34.4591 18.5059C34.404 18.0131 34.3235 17.5235 34.2179 17.0392H25.8587C25.9668 16.5434 26.101 16.0538 26.2607 15.5725H33.8212C33.6569 15.0748 33.4693 14.5859 33.2584 14.1059H26.8235C27.0704 13.6063 27.3384 13.1174 27.6275 12.6392H32.453C32.1538 12.1163 31.8036 11.625 31.4078 11.1725H28.6728C29.0934 10.651 29.5506 10.1609 30.0409 9.70587C28.0792 7.90891 25.6441 6.7265 23.0311 6.3021C20.418 5.8777 17.7394 6.22956 15.3202 7.31499C12.901 8.40042 10.8452 10.1728 9.40222 12.417C7.95927 14.6612 7.19119 17.2808 7.19119 19.9579C7.19119 22.635 7.95927 25.2546 9.40222 27.4988C10.8452 29.743 12.901 31.5153 15.3202 32.6008C17.7394 33.6862 20.418 34.038 23.0311 33.6137C25.6441 33.1893 28.0792 32.0068 30.0409 30.2099C30.5322 29.7479 30.9973 29.2582 31.4341 28.7432H28.6728C28.2944 28.2769 27.9453 27.7871 27.6275 27.2765H32.453C32.7527 26.8059 33.0218 26.316 33.2584 25.8099H26.8235C26.6032 25.3345 26.4151 24.8445 26.2607 24.3432H33.8199C33.9792 23.8617 34.1139 23.3722 34.2232 22.8765C34.3292 22.3923 34.4098 21.9027 34.4644 21.4099C34.5715 20.4351 34.5715 19.4513 34.4644 18.4765L34.4591 18.5059Z" fill="#CD2032"/>
<path fill-rule="evenodd" clip-rule="evenodd" d="M51.0589 23.1729C51.0582 23.1131 51.0697 23.0538 51.0927 22.9988C51.1157 22.9437 51.1496 22.8939 51.1924 22.8527C51.2351 22.8114 51.2858 22.7795 51.3413 22.7589C51.3968 22.7383 51.4559 22.7294 51.5149 22.7329C51.5715 22.7322 51.6277 22.7429 51.6802 22.7645C51.7326 22.7861 51.7803 22.8181 51.8203 22.8586C51.8604 22.8991 51.892 22.9473 51.9133 23.0004C51.9347 23.0535 51.9453 23.1103 51.9446 23.1676C51.9468 23.286 51.903 23.4006 51.8227 23.4868C51.7424 23.5731 51.6319 23.6241 51.5149 23.6289C51.3951 23.6296 51.2799 23.5824 51.1945 23.4974C51.109 23.4125 51.0603 23.2968 51.0589 23.1756V23.1729ZM51.5149 23.5249C51.6023 23.5176 51.6839 23.4774 51.7434 23.4122C51.8029 23.347 51.8362 23.2616 51.8365 23.1729C51.8355 23.087 51.8013 23.0048 51.7412 22.944C51.6811 22.8832 51.5999 22.8486 51.5149 22.8476C51.4709 22.8454 51.4268 22.8522 51.3854 22.8674C51.3439 22.8827 51.3059 22.9062 51.2735 22.9364C51.2411 22.9667 51.215 23.0032 51.1967 23.0438C51.1784 23.0844 51.1683 23.1283 51.1669 23.1729C51.1686 23.2657 51.2058 23.3543 51.2707 23.4199C51.3356 23.4856 51.4232 23.5232 51.5149 23.5249ZM51.4345 23.3916H51.3541V22.9836H51.5149C51.5531 22.9794 51.5915 22.9894 51.623 23.0116C51.6494 23.0383 51.6757 23.0649 51.6757 23.0929C51.6757 23.1476 51.6494 23.2009 51.5966 23.2009L51.6757 23.3916H51.569L51.5149 23.2276H51.4345V23.3916ZM51.4345 23.1476H51.5426C51.569 23.1476 51.569 23.1196 51.569 23.0929C51.569 23.0894 51.5683 23.0859 51.567 23.0827C51.5656 23.0795 51.5637 23.0765 51.5612 23.0741C51.5588 23.0716 51.5559 23.0696 51.5527 23.0683C51.5495 23.0669 51.5461 23.0662 51.5426 23.0662H51.4345V23.1476Z" fill="white"/>
<path fill-rule="evenodd" clip-rule="evenodd" d="M25.4025 23.9585C25.0383 24.0784 24.6584 24.1422 24.2755 24.1479C23.5796 24.1479 23.1499 23.7145 23.1499 22.8999C23.1556 22.7272 23.1737 22.5552 23.2039 22.3852L23.2843 21.8425L23.3647 21.3812L24.0079 17.4759H25.4288L25.268 18.3439H26.1551L25.9402 19.7812H25.0558L24.6538 22.1132C24.6538 22.1959 24.6274 22.2759 24.6274 22.3305C24.6274 22.6292 24.7882 22.7652 25.1362 22.7652C25.2896 22.7618 25.4423 22.7435 25.5923 22.7105L25.4051 23.9585H25.4025ZM29.9867 23.9039C29.4925 24.0641 28.9768 24.1464 28.4578 24.1479C26.8761 24.1479 25.9376 23.2799 25.9376 21.5985C25.9376 19.6465 27.0369 18.1812 28.5382 18.1812C29.7455 18.1812 30.5232 18.9945 30.5232 20.2692C30.5148 20.7452 30.452 21.2185 30.336 21.6799H27.3862V21.8425C27.3862 22.5212 27.8145 22.8465 28.6726 22.8465C29.2105 22.8464 29.7417 22.7258 30.2279 22.4932L29.9867 23.9039ZM29.1023 20.5132V20.2465C29.1023 19.7852 28.8387 19.5145 28.405 19.5145C27.9226 19.5145 27.601 19.8665 27.4666 20.5185H29.1023V20.5132ZM14.0617 24.0399H12.5868L13.4449 18.6425L11.5416 24.0399H10.5227L10.4159 18.6692L9.5038 24.0399H8.08292L9.23492 17.0145H11.3531L11.4348 21.3545L12.8544 17.0145H15.215L14.0617 24.0399ZM17.6271 21.4905C17.4663 21.4905 17.44 21.4625 17.3319 21.4625C16.5015 21.4625 16.0718 21.7892 16.0718 22.3305C16.0718 22.7105 16.2866 22.9279 16.6082 22.9279C17.3319 22.9279 17.6008 22.3305 17.6271 21.4905ZM18.8068 24.0399H17.5204L17.5467 23.4425C17.2251 23.9039 16.7954 24.1479 15.9914 24.1479C15.2678 24.1479 14.6733 23.4972 14.6733 22.5745C14.6784 22.327 14.7143 22.0811 14.7801 21.8425C15.0213 20.9479 15.9057 20.4052 17.2462 20.3759C17.4609 20.3725 17.6757 20.3814 17.8894 20.4025C17.9288 20.2799 17.9471 20.1514 17.9435 20.0225C17.9435 19.6439 17.6482 19.5345 16.9509 19.5345C16.5355 19.5433 16.1223 19.5979 15.7185 19.6972L15.5301 19.7785H15.4233L15.6381 18.5039C16.1901 18.3136 16.7685 18.2133 17.3516 18.2065C18.6381 18.2065 19.3077 18.7759 19.3077 19.8879C19.3246 20.2605 19.2976 20.6337 19.2273 20.9999L18.9333 23.0332L18.8793 23.3865L18.8266 23.6839V23.8732L18.7989 24.0372L18.8068 24.0399ZM37.1189 18.3985C37.5143 18.3985 37.8952 18.5065 38.4369 18.7785L38.6782 17.2319C38.5463 17.1785 38.5173 17.1785 38.3302 17.0985L37.7133 16.9652C37.4946 16.9063 37.2687 16.8789 37.0424 16.8839C36.3188 16.8839 35.8904 16.8839 35.4344 17.1825C35.1025 17.3768 34.8038 17.6239 34.5499 17.9145L34.3891 17.8599L32.8615 18.9452L32.9419 18.3479H31.3602L30.4757 24.0439H31.9507L32.4871 20.9772C32.5824 20.7804 32.6898 20.5898 32.8087 20.4065C33.0724 20.0545 33.3175 20.0545 33.6128 20.0545H33.7209C33.6932 20.3799 33.6668 20.7599 33.6668 21.1399C33.6668 23.0065 34.7121 24.1772 36.3214 24.1772C36.7589 24.1739 37.1931 24.1005 37.6079 23.9599L37.8715 22.3599C37.4847 22.576 37.053 22.6966 36.6114 22.7119C35.7533 22.7119 35.2446 22.0892 35.2446 21.0039C35.2446 19.4852 35.9945 18.3999 37.1215 18.3999L37.1189 18.3985ZM49.6406 17.0145L49.319 19.0225C48.971 18.4799 48.5413 18.2359 47.9785 18.2359C47.2008 18.2359 46.4772 18.6692 46.0212 19.5105L45.0827 18.9412L45.1631 18.3439H43.5814L42.6706 24.0399H44.1719L44.6543 20.9732C44.6543 20.9732 45.0287 20.5385 45.1367 20.4025C45.2101 20.2979 45.3062 20.2117 45.4178 20.1507C45.5293 20.0896 45.6532 20.0554 45.78 20.0505C45.6031 20.5929 45.514 21.1607 45.5163 21.7319C45.5163 23.1692 46.2663 24.1185 47.3392 24.1185C47.599 24.122 47.856 24.0655 48.0909 23.9532C48.3257 23.8409 48.5321 23.6758 48.6942 23.4705L48.6138 24.0399H50.0347L51.1617 17.0159H49.6327L49.6406 17.0145ZM47.8454 22.6839C47.3353 22.6839 47.0941 22.3305 47.0941 21.5719C47.0941 20.4599 47.5501 19.6465 48.2461 19.6465C48.7562 19.6465 49.0251 20.0465 49.0251 20.7852C49.0251 21.8972 48.5413 22.6839 47.8388 22.6839H47.8454ZM41.0085 21.4905C40.8477 21.4905 40.8213 21.4625 40.7133 21.4625C39.8829 21.4625 39.4532 21.7892 39.4532 22.3305C39.4532 22.7105 39.668 22.9279 39.9896 22.9279C40.7133 22.9279 40.9808 22.3305 41.0085 21.4905ZM42.1882 24.0399H40.9017L40.9281 23.4425C40.6065 23.9039 40.1768 24.1479 39.3728 24.1479C38.6492 24.1479 38.0059 23.5239 38.0059 22.5745C38.0323 21.2185 39.0248 20.3785 40.6329 20.3785C40.8476 20.3752 41.0623 20.3841 41.2761 20.4052C41.3155 20.2826 41.3338 20.1541 41.3301 20.0252C41.3301 19.6465 41.0349 19.5372 40.3376 19.5372C39.9221 19.5442 39.5086 19.5988 39.1052 19.6999L38.8904 19.7812H38.8086L39.0235 18.5065C39.5755 18.3162 40.1539 18.2158 40.737 18.2092C42.0248 18.2092 42.6943 18.7785 42.6943 19.8905C42.7105 20.2631 42.6835 20.6363 42.6139 21.0025L42.32 23.0359L42.266 23.3892L42.2119 23.6865L42.1856 23.8759L42.1882 24.0399ZM21.8898 19.5652C22.2663 19.5697 22.6421 19.5969 23.0154 19.6465L23.2303 18.3132C22.7856 18.2532 22.3382 18.2171 21.8898 18.2052C20.2541 18.2052 19.6925 19.0999 19.6925 20.1572C19.6925 20.8345 20.0128 21.3505 20.7905 21.7025C21.4074 22.0012 21.5141 22.0559 21.5141 22.2999C21.5141 22.6532 21.1925 22.8692 20.6033 22.8692C20.1562 22.8593 19.7126 22.7866 19.2853 22.6532L19.1245 23.9545H19.1521L19.4158 24.0092C19.5376 24.046 19.6642 24.064 19.7914 24.0625C20.0752 24.1026 20.3616 24.1209 20.6482 24.1172C22.2839 24.1172 22.9812 23.4932 22.9812 22.2185C22.9812 21.4319 22.6055 20.9719 21.8555 20.6452C21.2387 20.3479 21.1583 20.3199 21.1583 20.0492C21.1583 19.7785 21.4219 19.5612 21.8819 19.5612L21.8898 19.5652Z" fill="#223970"/>
<path fill-rule="evenodd" clip-rule="evenodd" d="M39.0724 16.7983L38.8312 18.317C38.2947 18.0503 37.9204 17.937 37.5131 17.937C36.3875 17.937 35.6111 19.0223 35.6111 20.5676C35.6111 21.6263 36.1463 22.277 37.0043 22.277C37.4461 22.2618 37.878 22.1407 38.2644 21.9236L38.0008 23.5236C37.5719 23.6466 37.1285 23.7107 36.6827 23.7143C35.101 23.7143 34.1098 22.5743 34.1098 20.7036C34.1098 18.181 35.4767 16.4463 37.4327 16.4463C37.6573 16.4474 37.8816 16.4653 38.1036 16.4996L38.7205 16.6623C38.9076 16.7436 38.934 16.7436 39.0685 16.7956L39.0724 16.7983ZM34.3273 17.8556C34.2766 17.8339 34.2215 17.8247 34.1665 17.829C33.6841 17.829 33.4152 18.073 32.9605 18.7503L33.0923 17.8823H31.7294L30.845 23.605H32.3199C32.8563 20.1076 32.9895 19.5103 33.7144 19.5103H33.8212C33.953 18.8316 34.1164 18.317 34.384 17.8556H34.3273ZM25.7743 23.5236C25.4304 23.6482 25.068 23.7127 24.7027 23.7143C23.9514 23.7143 23.523 23.2796 23.523 22.4663C23.5289 22.2937 23.5465 22.1218 23.5758 21.9516L23.6562 21.381L23.7366 20.9476L24.3811 17.0423H25.8547L25.6939 17.8823H26.4452L26.2304 19.293H25.483L25.0876 21.653C25.0876 21.761 25.0599 21.8423 25.0599 21.897C25.0599 22.1956 25.2207 22.3303 25.57 22.3303C25.7058 22.3313 25.8411 22.3134 25.972 22.277L25.7835 23.5236H25.7743ZM20.0644 19.6996C20.0644 20.405 20.4124 20.921 21.19 21.273C21.8069 21.5716 21.8873 21.653 21.8873 21.9236C21.8873 22.277 21.6237 22.4396 21.0292 22.4396C20.5795 22.4332 20.134 22.3507 19.7112 22.1956L19.4976 23.529H19.578L19.8416 23.5836C19.9634 23.621 20.0901 23.6394 20.2173 23.6383C20.5653 23.665 20.8605 23.6916 21.0477 23.6916C22.603 23.6916 23.3266 23.0956 23.3266 21.7943C23.3266 21.0076 23.0327 20.5463 22.2814 20.1943C21.6645 19.9276 21.5841 19.8423 21.5841 19.5983C21.5841 19.273 21.8254 19.1103 22.3078 19.1103C22.6673 19.1231 23.0257 19.1592 23.3807 19.2183L23.5955 17.885C23.1586 17.8235 22.7185 17.7874 22.2775 17.777C20.6154 17.777 20.0525 18.645 20.0525 19.7023L20.0644 19.6996ZM50.4131 23.605H48.9962L49.0753 23.0356C48.9074 23.2359 48.6978 23.3962 48.4615 23.5049C48.2252 23.6137 47.968 23.6684 47.7085 23.665C46.6355 23.665 45.9119 22.7423 45.9119 21.305C45.9119 19.4063 47.0112 17.8063 48.3253 17.8063C48.9145 17.8063 49.3442 18.0503 49.7449 18.593L50.0678 16.5863H51.5427L50.4158 23.6103L50.4131 23.605ZM48.2146 22.249C48.9119 22.249 49.4009 21.4623 49.4009 20.3236C49.4009 19.6183 49.1373 19.2116 48.6232 19.2116C47.9536 19.2116 47.4712 19.9983 47.4712 21.137C47.4672 21.8703 47.7085 22.249 48.2172 22.249H48.2146ZM30.3059 23.4703C29.8124 23.6318 29.2969 23.7141 28.7782 23.7143C27.1148 23.7143 26.258 22.8183 26.258 21.165C26.258 19.185 27.3573 17.7476 28.8586 17.7476C30.0647 17.7476 30.8423 18.561 30.8423 19.8356C30.8313 20.3098 30.7774 20.782 30.6815 21.2463H27.7369C27.7173 21.2981 27.7083 21.3535 27.7106 21.409C27.7106 22.0596 28.1389 22.4116 29.0286 22.4116C29.5546 22.4095 30.0737 22.2912 30.5497 22.065L30.3059 23.4703ZM29.4755 20.0796V19.781C29.4755 19.3196 29.233 19.049 28.7782 19.049C28.3235 19.049 27.9742 19.429 27.8397 20.0796H29.4755ZM14.4375 23.605H12.9626L13.8207 18.209L11.92 23.605H10.9024L10.7944 18.2356L9.88356 23.605H8.51144L9.66476 16.581H11.7882L11.8686 20.921L13.2895 16.581H15.5948L14.4428 23.605H14.4375ZM18.115 21.0556C18.0001 21.0354 17.8836 21.0265 17.767 21.029C16.9353 21.029 16.5069 21.3276 16.5069 21.897C16.5069 22.249 16.7204 22.4943 17.042 22.4943C17.6589 22.4943 18.0886 21.897 18.115 21.0556ZM19.1879 23.605H17.9542L17.9818 23.009C17.6062 23.4703 17.1238 23.6863 16.4265 23.6863C15.6225 23.6863 15.086 23.0623 15.086 22.141C15.086 20.7583 16.0245 19.9436 17.6866 19.9436C17.8833 19.9404 18.0801 19.9493 18.2758 19.9703C18.3164 19.8577 18.3347 19.7381 18.3298 19.6183C18.3298 19.2396 18.0886 19.1036 17.3913 19.1036C16.9744 19.0966 16.5588 19.1514 16.1576 19.2663L15.9428 19.3196L15.811 19.3463L16.0245 18.0716C16.7758 17.8556 17.2582 17.7743 17.7947 17.7743C19.0811 17.7743 19.752 18.3436 19.752 19.429C19.7435 19.8119 19.6994 20.1931 19.6202 20.5676L19.3157 22.5983L19.263 22.9516L19.2353 23.249L19.209 23.4396L19.1826 23.6023L19.1879 23.605ZM41.4937 21.0556C41.3788 21.0354 41.2623 21.0265 41.1457 21.029C40.314 21.029 39.8843 21.3276 39.8843 21.897C39.8843 22.249 40.0992 22.4943 40.4208 22.4943C41.0113 22.4943 41.4674 21.897 41.4937 21.0556ZM42.5653 23.605H41.3329L41.3593 23.009C40.9836 23.4703 40.4748 23.6863 39.8039 23.6863C38.9999 23.6863 38.4371 23.0623 38.4371 22.141C38.4371 20.7583 39.4019 19.9436 41.064 19.9436C41.2608 19.9403 41.4575 19.9492 41.6532 19.9703C41.6938 19.8577 41.7122 19.7381 41.7072 19.6183C41.7072 19.2396 41.466 19.1036 40.7688 19.1036C40.3523 19.0967 39.9371 19.1515 39.5364 19.2663L39.3215 19.3196L39.1897 19.3463L39.4046 18.0716C40.1545 17.8556 40.6383 17.7743 41.1734 17.7743C42.4612 17.7743 43.1308 18.3436 43.1308 19.429C43.1225 19.8119 43.0783 20.1931 42.999 20.5676L42.6945 22.5983L42.6404 22.9516L42.5864 23.249L42.56 23.4396V23.6023L42.5653 23.605ZM46.534 17.8556C46.4943 17.832 46.4479 17.8227 46.4022 17.829C45.9198 17.829 45.6246 18.073 45.1698 18.7503L45.3016 17.8823H43.9493L43.0385 23.605H44.5398C45.0486 20.1076 45.2094 19.5103 45.9066 19.5103H46.0147C46.122 18.9329 46.3144 18.3752 46.5855 17.8556H46.534Z" fill="white"/>
</svg>
