<svg width="21" height="21" viewBox="0 0 21 21" fill="none" xmlns="http://www.w3.org/2000/svg">
<path id="Union" opacity="0.4" fill-rule="evenodd" clip-rule="evenodd" d="M8.7133 0.5C4.0549 0.5 0.265015 4.28989 0.265015 8.94829C0.265015 13.6067 4.0549 17.3966 8.7133 17.3966C10.7771 17.3966 12.6704 16.6527 14.1392 15.4191L19.0037 20.2835C19.148 20.4279 19.3369 20.5 19.5261 20.5C19.7153 20.5 19.9042 20.4279 20.0485 20.2835C20.3372 19.9951 20.3372 19.5271 20.0485 19.2387L15.1841 14.3742C16.4177 12.9054 17.1616 11.0121 17.1616 8.94829C17.1616 4.28989 13.3717 0.5 8.7133 0.5ZM13.7127 13.801C14.932 12.5451 15.6837 10.8329 15.6837 8.94829C15.6837 5.10469 12.5567 1.97785 8.7133 1.97785C4.8697 1.97785 1.74287 5.10469 1.74287 8.94829C1.74287 12.7919 4.8697 15.9187 8.7133 15.9187C10.5978 15.9187 12.31 15.1671 13.5658 13.9478C13.5865 13.9204 13.6093 13.8942 13.6342 13.8692C13.6591 13.8443 13.6853 13.8216 13.7127 13.801ZM5.78717 5.05149C5.49873 4.76282 5.03076 4.76282 4.74232 5.05149C3.67138 6.12243 3.14502 7.6143 3.29798 9.14485C3.33615 9.52614 3.65736 9.81036 4.03248 9.81036C4.05713 9.81036 4.08197 9.80911 4.10662 9.80665C4.51279 9.76602 4.80908 9.40368 4.76845 8.99778C4.65959 7.91008 5.03103 6.85247 5.78717 6.09629C6.07584 5.8079 6.07584 5.33989 5.78717 5.05149Z" fill="#6863F3"/>
</svg>
