<svg width="22" height="22" viewBox="0 0 22 22" fill="none" xmlns="http://www.w3.org/2000/svg">
<path fill-rule="evenodd" clip-rule="evenodd" d="M9.29311 0C4.16887 0 0 4.16887 0 9.29311C0 14.4174 4.16887 18.5862 9.29311 18.5862C11.5633 18.5862 13.6459 17.768 15.2616 16.411L20.6122 21.7615C20.7709 21.9202 20.9787 21.9996 21.1868 21.9996C21.3949 21.9996 21.6027 21.9202 21.7615 21.7615C22.079 21.4442 22.079 20.9294 21.7615 20.6121L16.411 15.2616C17.768 13.6459 18.5862 11.5633 18.5862 9.29311C18.5862 4.16887 14.4173 0 9.29311 0ZM14.7949 14.6285C16.1347 13.2473 16.9606 11.3649 16.9606 9.29311C16.9606 5.06516 13.5208 1.62564 9.29311 1.62564C5.06516 1.62564 1.62564 5.06516 1.62564 9.29311C1.62564 13.5211 5.06516 16.9606 9.29311 16.9606C11.3648 16.9606 13.2472 16.1348 14.6284 14.7951C14.6516 14.7639 14.6774 14.734 14.7057 14.7057C14.734 14.6775 14.7638 14.6517 14.7949 14.6285ZM6.07318 5.00554C5.7559 4.688 5.24113 4.688 4.92385 5.00554C3.74582 6.18357 3.16681 7.82463 3.33508 9.50824C3.37706 9.92765 3.73039 10.2403 4.14302 10.2403C4.17013 10.2403 4.19746 10.2389 4.22457 10.2362C4.67136 10.1915 4.99728 9.79295 4.95259 9.34646C4.83284 8.14999 5.24143 6.98661 6.07318 6.15482C6.39072 5.83758 6.39072 5.32278 6.07318 5.00554Z" fill="#756C99"/>
</svg>
