<svg width="44" height="44" viewBox="0 0 24 20" fill="none" xmlns="http://www.w3.org/2000/svg">
<path d="M19.5833 8.98214C19.5833 8.98214 19.875 10.5513 19.9583 10.8906H18.5833C18.7083 10.5089 19.25 9.02455 19.25 9.02455C19.2083 9.06696 19.375 8.64286 19.4583 8.38839L19.5833 8.98214ZM24 2.53571V17.4643C24 18.6094 23.0833 19.5 22 19.5H2C0.875 19.5 0 18.6094 0 17.4643V2.53571C0 1.43304 0.875 0.5 2 0.5H22C23.0833 0.5 24 1.43304 24 2.53571ZM6.33333 13.2232L8.95833 6.60714H7.20833L5.54167 11.1027L5.375 10.2121L4.79167 7.20089C4.70833 6.77679 4.41667 6.64955 4.04167 6.60714H1.33333V6.77679C1.95833 6.94643 2.54167 7.15848 3.08333 7.49777L4.58333 13.2232H6.33333ZM10.25 13.2232L11.3333 6.60714H9.625L8.58333 13.2232H10.25ZM16.0833 11.0603C16.125 10.2969 15.6667 9.74554 14.7083 9.27902C14.125 8.98214 13.75 8.77009 13.75 8.47321C13.75 8.17634 14.0417 7.87946 14.7083 7.87946C15.25 7.87946 15.6667 8.0067 15.9583 8.13393L16.125 8.21875L16.3333 6.77679C16 6.64955 15.5 6.52232 14.8333 6.52232C13.1667 6.52232 12 7.41295 12 8.68527C12 9.6183 12.8333 10.1696 13.4583 10.4665C14.125 10.8058 14.3333 11.0179 14.3333 11.2723C14.3333 11.7388 13.8333 11.9509 13.3333 11.9509C12.6667 11.9509 12.3333 11.8237 11.75 11.5692L11.5417 11.4844L11.3333 12.9688C11.7083 13.1384 12.4167 13.308 13.1667 13.308C14.9583 13.308 16.0833 12.4174 16.0833 11.0603ZM22 13.2232L20.625 6.60714H19.3333C18.9167 6.60714 18.625 6.73438 18.4583 7.15848L15.9583 13.2232H17.75C17.75 13.2232 18 12.4174 18.0833 12.2478H20.25C20.2917 12.4598 20.4167 13.2232 20.4167 13.2232H22Z" fill="#6F6BF3"/>
</svg>
