<svg width="60" height="40" viewBox="0 0 60 40" fill="none" xmlns="http://www.w3.org/2000/svg">
<rect width="60" height="40" rx="4" fill="white"/>
<path d="M22.3193 27.7689L24.9512 12.269H29.1632L26.527 27.7689H22.3193Z" fill="#0058A0"/>
<path d="M41.7981 12.6521C40.5886 12.2123 39.3108 11.9915 38.0244 12.0002C33.8647 12.0002 30.9343 14.1034 30.9081 17.1157C30.8848 19.3432 32.9996 20.5855 34.5973 21.328C36.2373 22.088 36.782 22.5717 36.782 23.2499C36.7704 24.2891 35.4712 24.7626 34.2623 24.7626C32.5772 24.7626 31.683 24.5288 30.2993 23.95L29.7633 23.7045L29.1647 27.1742C30.1478 27.6127 31.9655 27.981 33.8545 28C38.2807 28 41.1529 25.9231 41.1864 22.7048C41.2024 20.9421 40.0809 19.6004 37.653 18.494C36.1805 17.7764 35.2775 17.2984 35.2877 16.572C35.2877 15.9275 36.0509 15.2391 37.6996 15.2391C38.779 15.2144 39.8515 15.4165 40.8485 15.8325L41.2286 16.0122L41.7981 12.6506V12.6521Z" fill="#0058A0"/>
<path d="M52.5948 12.2847H49.341C48.3332 12.2847 47.5787 12.5609 47.136 13.5694L40.8848 27.7758H45.3052C45.3052 27.7758 46.0261 25.8655 46.1922 25.4461L51.5811 25.4534C51.7049 25.9956 52.0923 27.7758 52.0923 27.7758H56L52.5919 12.2832L52.5948 12.2847ZM47.4025 22.2759C47.7506 21.3829 49.0789 17.9424 49.0789 17.9424C49.0556 17.9833 49.4255 17.045 49.6382 16.4618L49.9294 17.7991L50.9038 22.2759H47.4025Z" fill="#0058A0"/>
<path d="M18.7888 12.2803L14.6656 22.8518L14.2287 20.7033C13.4626 18.2186 11.0725 15.5439 8.40283 14.2008L12.1649 27.7582H16.6187L23.2471 12.2803H18.7888Z" fill="#0058A0"/>
<path d="M10.8425 12.2666H4.05098L4 12.5881C9.28113 13.8729 12.7766 16.9728 14.2258 20.6984L12.7504 13.582C12.497 12.5998 11.7571 12.3075 10.8425 12.2666Z" fill="#FAA61A"/>
</svg>
